# xmcd
#
# Track frame offsets:
#  150
#  10318
#  20656
#  29221
#  39478
#  51696
#  60851
#  72608
#  86431
#  97801
#  106796
#  116718
#
# Disc length: 1728 seconds
#
# Revision: 0
# Processed by: cddbd v1.5.1PL0 Copyright (c) Steve Scherf et al.
# Submitted via: Collectorz.com_Music_Collector 6.9
#
DISCID=a006be0c
DTITLE=Johnny Cash - The Fabulous Johnny Cash
DYEAR=1959
DGENRE=Traditional Country
TTITLE0=Run Softly Blue River
TTITLE1=Frankie's Man Johnny
TTITLE2=That's All Over
TTITLE3=The Troubadour
TTITLE4=That's Enough
TTITLE5=One More Ride
TTITLE6=I Still Miss Someone
TTITLE7=Don't Take Your Guns To Town
TTITLE8=I'd Rather Die Young
TTITLE9=Pickin' Time
TTITLE10=The Shepherd Of My Heart
TTITLE11=Suppertime
EXTD=
EXTT0=
EXTT1=
EXTT2=
EXTT3=
EXTT4=
EXTT5=
EXTT6=
EXTT7=
EXTT8=
EXTT9=
EXTT10=
EXTT11=
PLAYORDER=
